<?xml version="1.0" encoding="UTF-8"?>
<svg id="Layer_1" data-name="Layer 1" xmlns="http://www.w3.org/2000/svg" viewBox="0 0 125.38 79.57">
  <defs>
    <style>
        .cls-1 {
            fill: #08041c;
            stroke-width: 0px;
        }
        @media (prefers-color-scheme: dark) {
            .cls-1 {
                fill: #ffffff;
                stroke-width: 0px;
            }
        }
    </style>
  </defs>
  <path class="cls-1" d="m51.67,5.91c-3.31-.05-7.13-.04-10.25.92-9.81,2.34-15.42,12.11-17.88,21.24-.8,3.17-1.19,6.45-1.23,9.73h-.69c-.07-9.96,3.29-20.39,10.55-27.45,5.27-5.01,12.46-6.23,19.5-6.08,17.24-.17,47.68-.44,67.69-.64,2.5-.02,4.85-1.37,6-3.59,0-.01.01-.03.02-.04h0s-82.23,0-82.23,0c-4.35,0-8.52,1.21-12.1,3.4-6.66,4.06-9.79,11.2-12.56,18.16-3.33,8.38-4.51,17.23-5.21,26.26h25.84,0c-.08-.14-2.56-4.44-3.47-10.49-.42-2.78-.32-5.92.86-9.19,2.64-7.36,9.76-12.17,17.58-12.17h39.05c5.11,0,10.62-.63,14.3-3.72-16.97-.18-36.27-.47-50.87-.62-2.13-.05-4.47.05-6.61.16-.58.06-1.68.1-2.16.26-12.04,1.38-19.59,14.35-18.4,25.78,0,0,.51,5.08.51,5.08l-.58.07-.62-5.08c-1.53-13.56,7.57-26.88,21.14-27.62,9.13-.61,24.11-.38,33.39-.6,0,0,18.6-.24,28.12-.34,2.4-.03,4.72-.97,6.35-2.73l.03-.03c-20.07-.18-48.3-.5-66.07-.65Z"/>
  <path class="cls-1" d="m76.96,50.96s1.06,4.24,6.9,4.7c-1.21-4.17-6.9-4.7-6.9-4.7Z"/>
  <path class="cls-1" d="m107.81,66.96c-1.99,3.88-4.98,7.02-8.56,9.2-1.98,1.21-4.14,2.12-6.41,2.68-1.84.47-3.74.72-5.7.72H29.64c-17.67,0-26.21-6.75-29.64-15.98h84.55c2.62,0,6.02,1.4,9.34,3.99v-5.53c0-1.01-.45-1.97-1.23-2.62l-3.94-3.29c-.04-.17-.15-.48-.31-.89-.91-2.29-3.6-7.53-9.37-7.53-3.75,0-7.89.02-11.97-.57-.08-.02-.16-.03-.24-.04-3.85-.58-7.64-1.69-11.06-3.86-7.07-4.49-8.31-11.51-8.31-11.51h38.89c18.09,0,29.75,19.15,21.47,35.21Z"/>
</svg>