<?xml version="1.0" encoding="UTF-8"?>
<svg id="Layer_1" data-name="Layer 1" xmlns="http://www.w3.org/2000/svg" viewBox="0 0 191.63 32.49">
  <defs>
    <style>
      .cls-1 {
        fill: #08041c;
        stroke-width: 0px;
      }
    </style>
  </defs>
  <g>
    <path class="cls-1" d="m65.29,24.62c-.93,0-1.84-.14-2.75-.42-.91-.28-1.72-.71-2.44-1.28-.72-.58-1.3-1.31-1.75-2.2-.45-.89-.67-1.93-.67-3.14,0-1.26.25-2.48.76-3.64.51-1.16,1.21-2.2,2.11-3.1.89-.9,1.96-1.62,3.19-2.16,1.23-.54,2.58-.81,4.05-.81.85,0,1.62.08,2.31.23.69.15,1.31.36,1.85.61.54.25,1.01.55,1.42.89.41.34.75.69,1.03,1.06l-2.64,2.34c-.48-.52-1.05-.97-1.72-1.33-.67-.36-1.52-.54-2.53-.54-.86,0-1.67.17-2.42.52-.75.35-1.4.81-1.94,1.39-.55.58-.98,1.25-1.3,2.01-.32.76-.47,1.57-.47,2.42,0,.63.11,1.19.32,1.68.22.49.51.89.89,1.21.38.32.82.57,1.32.74.5.17,1.04.25,1.61.25.63,0,1.18-.06,1.65-.19.47-.12.88-.27,1.24-.44l.76-2.64h-3.59l.83-3.08h7.03l-2.29,8.08c-.8.45-1.68.81-2.63,1.1-.95.29-2.03.43-3.25.43Z"/>
    <path class="cls-1" d="m82.64,24.62c-1.11,0-2.12-.18-3.03-.54-.91-.36-1.69-.87-2.34-1.52s-1.15-1.41-1.5-2.28c-.36-.87-.53-1.82-.53-2.83,0-1.2.24-2.38.71-3.53.47-1.15,1.13-2.17,1.99-3.07.86-.89,1.88-1.62,3.08-2.16,1.2-.55,2.52-.82,3.97-.82,1.11,0,2.12.18,3.03.54.91.36,1.69.87,2.34,1.52s1.15,1.41,1.5,2.28c.35.87.53,1.82.53,2.83,0,1.2-.24,2.38-.71,3.53-.47,1.15-1.13,2.17-1.99,3.07-.86.89-1.88,1.62-3.08,2.16-1.2.55-2.52.82-3.97.82Zm.42-3.29c.85,0,1.62-.19,2.31-.56.69-.37,1.28-.84,1.77-1.42.49-.58.86-1.23,1.13-1.96.27-.72.4-1.43.4-2.13,0-.6-.09-1.15-.27-1.65-.18-.5-.44-.94-.79-1.31-.35-.37-.78-.66-1.3-.86-.52-.2-1.11-.3-1.77-.3-.85,0-1.62.19-2.31.56-.69.37-1.28.84-1.77,1.42s-.86,1.23-1.13,1.96c-.27.73-.4,1.43-.4,2.13,0,.6.09,1.15.27,1.65.18.5.44.94.79,1.31s.78.66,1.3.86c.52.2,1.11.3,1.77.3Z"/>
    <path class="cls-1" d="m94.65,8.15h3.82l1.11,11.29,7.17-11.29h4l-10.85,16.31h-3.15l-2.11-16.31Z"/>
    <path class="cls-1" d="m115.89,24.58c-1.48,0-2.76-.27-3.83-.82-1.07-.55-1.95-1.3-2.63-2.26l.93-.67c.69.89,1.48,1.57,2.37,2.01.89.45,1.98.67,3.27.67.66,0,1.28-.09,1.85-.27.57-.18,1.06-.42,1.48-.74.42-.32.74-.69.98-1.12.24-.43.36-.9.36-1.41,0-.35-.06-.68-.19-.96-.12-.29-.32-.56-.6-.81-.28-.26-.64-.5-1.1-.74-.46-.24-1.01-.49-1.65-.75-.83-.32-1.54-.64-2.13-.94-.59-.3-1.06-.62-1.43-.95-.37-.33-.64-.69-.81-1.09-.17-.39-.25-.84-.25-1.33,0-.62.14-1.2.42-1.74.28-.54.67-1.01,1.18-1.41s1.12-.72,1.83-.96c.71-.24,1.5-.36,2.38-.36,1.22,0,2.31.23,3.29.68.97.46,1.75,1.05,2.34,1.77l-.93.74c-.59-.69-1.28-1.22-2.08-1.58-.8-.36-1.71-.54-2.73-.54-.69,0-1.32.09-1.87.28-.56.19-1.02.43-1.4.73-.38.3-.67.65-.88,1.04-.21.39-.31.81-.31,1.24,0,.37.08.71.23,1.01.15.3.39.58.71.83.32.26.72.5,1.2.74.49.24,1.06.48,1.72.73.76.28,1.4.56,1.94.86.54.29.98.61,1.33.95.35.34.61.71.78,1.11.17.4.25.85.25,1.34,0,.66-.15,1.28-.45,1.85-.3.57-.72,1.07-1.25,1.49-.53.42-1.17.76-1.91,1.01-.74.25-1.54.37-2.41.37Z"/>
    <path class="cls-1" d="m128.67,8.15h.99l3.93,9.58,9.07-9.58h1.27l-4.35,16.2h-1.2l3.77-14.07-8.91,9.32h-.09l-3.91-9.32-3.77,14.07h-1.16l4.35-16.2Z"/>
    <path class="cls-1" d="m154.26,8.03h1.16l3.17,16.31h-1.23l-.83-4.54h-9.56l-3.29,4.54h-1.34l11.92-16.31Zm2.04,10.71l-1.74-9.37-6.8,9.37h8.54Z"/>
    <path class="cls-1" d="m165.51,8.15h5.81c1.94,0,3.39.48,4.35,1.43.68.68,1.02,1.56,1.02,2.64,0,.68-.13,1.3-.38,1.86-.25.56-.61,1.07-1.05,1.52-.54.54-1.22.97-2.05,1.28-.83.32-1.73.53-2.72.64l3.56,6.83h-1.39l-3.47-6.71h-5.02l-1.8,6.71h-1.2l4.35-16.2Zm3.77,8.42c1.2,0,2.23-.15,3.08-.45.85-.3,1.52-.7,2.01-1.2.72-.73,1.09-1.6,1.09-2.62,0-.8-.24-1.45-.72-1.93-.36-.36-.82-.63-1.39-.82-.57-.19-1.27-.29-2.11-.29h-4.86l-1.97,7.31h4.86Z"/>
    <path class="cls-1" d="m184.48,9.26h-5.65l.3-1.11h12.49l-.3,1.11h-5.65l-4.05,15.09h-1.2l4.05-15.09Z"/>
  </g>
  <g>
    <path class="cls-1" d="m21.1,2.41c-1.35-.02-2.91-.01-4.19.37-4.01.96-6.3,4.95-7.3,8.67-.33,1.3-.49,2.63-.5,3.98h-.28c-.03-4.07,1.34-8.33,4.31-11.21,2.15-2.04,5.09-2.55,7.96-2.48,7.04-.07,19.47-.18,27.64-.26,1.02,0,1.98-.56,2.45-1.47,0,0,0-.01,0-.02h0s-33.58,0-33.58,0c-1.78,0-3.48.5-4.94,1.39-2.72,1.66-4,4.57-5.13,7.42-1.36,3.42-1.84,7.04-2.13,10.72h10.55,0c-.03-.06-1.05-1.81-1.42-4.28-.17-1.13-.13-2.42.35-3.75,1.08-3.01,3.99-4.97,7.18-4.97h15.95c2.08,0,4.34-.26,5.84-1.52-6.93-.07-14.81-.19-20.78-.25-.87-.02-1.82.02-2.7.06-.24.02-.69.04-.88.11-4.92.56-8,5.86-7.51,10.53,0,0,.21,2.07.21,2.07l-.24.03-.25-2.08c-.62-5.54,3.09-10.98,8.63-11.28,3.73-.25,9.85-.16,13.64-.24,0,0,7.6-.1,11.48-.14.98-.01,1.93-.4,2.59-1.11h.01c-8.2-.09-19.72-.21-26.98-.28Z"/>
    <path class="cls-1" d="m31.43,20.81s.43,1.73,2.82,1.92c-.5-1.7-2.82-1.92-2.82-1.92Z"/>
    <path class="cls-1" d="m44.03,27.35c-.81,1.58-2.03,2.87-3.5,3.76-.81.49-1.69.87-2.62,1.1-.75.19-1.53.29-2.33.29H12.11c-7.22,0-10.7-2.76-12.11-6.52h34.53c1.07,0,2.46.57,3.81,1.63v-2.26c0-.41-.19-.8-.5-1.07l-1.61-1.34c-.02-.07-.06-.2-.13-.36-.37-.94-1.47-3.07-3.82-3.07-1.53,0-3.22,0-4.89-.23-.03,0-.07-.01-.1-.02-1.57-.23-3.12-.69-4.52-1.57-2.89-1.83-3.39-4.7-3.39-4.7h15.88c7.39,0,12.15,7.82,8.77,14.38Z"/>
  </g>
</svg>